{
    "asset" : {
        "generator" : "Khronos glTF Blender I/O v1.6.16",
        "version" : "2.0"
    },
    "extensionsUsed" : [
        "KHR_materials_transmission"
    ],
    "scene" : 0,
    "scenes" : [
        {
            "name" : "Scene",
            "nodes" : [
                0,
                1
            ]
        }
    ],
    "nodes" : [
        {
            "mesh" : 0,
            "name" : "Cauldron",
            "rotation" : [
                0,
                0.16658136248588562,
                0,
                0.986027717590332
            ],
            "scale" : [
                1.5067449808120728,
                1.5067449808120728,
                1.5067449808120728
            ],
            "translation" : [
                0,
                2.3474459648132324,
                0
            ]
        },
        {
            "mesh" : 1,
            "name" : "Liquid",
            "rotation" : [
                -0.014440800994634628,
                0.2497408241033554,
                -0.02079709805548191,
                0.9679816365242004
            ],
            "scale" : [
                1.9407196044921875,
                1.663940191268921,
                1.9407196044921875
            ],
            "translation" : [
                0,
                1.418373703956604,
                0
            ]
        }
    ],
    "materials" : [
        {
            "alphaMode" : "BLEND",
            "doubleSided" : true,
            "extensions" : {
                "KHR_materials_transmission" : {
                    "transmissionFactor" : 0.4363636374473572
                }
            },
            "name" : "\u041c\u0430\u0442\u0435\u0440\u0438\u0430\u043b.001",
            "pbrMetallicRoughness" : {
                "baseColorFactor" : [
                    1,
                    0.44564560055732727,
                    0.05656112730503082,
                    1
                ],
                "metallicFactor" : 0.5045454502105713,
                "roughnessFactor" : 0.37272727489471436
            }
        },
        {
            "doubleSided" : true,
            "name" : "\u041c\u0430\u0442\u0435\u0440\u0438\u0430\u043b.006",
            "pbrMetallicRoughness" : {
                "baseColorFactor" : [
                    0.02909943088889122,
                    0.02909943088889122,
                    0.02909943088889122,
                    1
                ],
                "metallicFactor" : 0,
                "roughnessFactor" : 0.7833333015441895
            }
        }
    ],
    "meshes" : [
        {
            "name" : "\u041e\u043a\u0440\u0443\u0436\u043d\u043e\u0441\u0442\u044c",
            "primitives" : [
                {
                    "attributes" : {
                        "POSITION" : 0,
                        "NORMAL" : 1,
                        "TEXCOORD_0" : 2
                    },
                    "indices" : 3,
                    "material" : 0
                }
            ]
        },
        {
            "name" : "\u0421\u0444\u0435\u0440\u0430.057",
            "primitives" : [
                {
                    "attributes" : {
                        "POSITION" : 4,
                        "NORMAL" : 5,
                        "TEXCOORD_0" : 6,
                        "TEXCOORD_1" : 7
                    },
                    "indices" : 8,
                    "material" : 1
                }
            ]
        }
    ],
    "accessors" : [
        {
            "bufferView" : 0,
            "componentType" : 5126,
            "count" : 32,
            "max" : [
                1,
                0,
                1
            ],
            "min" : [
                -1,
                0,
                -1
            ],
            "type" : "VEC3"
        },
        {
            "bufferView" : 1,
            "componentType" : 5126,
            "count" : 32,
            "type" : "VEC3"
        },
        {
            "bufferView" : 2,
            "componentType" : 5126,
            "count" : 32,
            "type" : "VEC2"
        },
        {
            "bufferView" : 3,
            "componentType" : 5123,
            "count" : 90,
            "type" : "SCALAR"
        },
        {
            "bufferView" : 4,
            "componentType" : 5126,
            "count" : 14864,
            "max" : [
                1.0398563146591187,
                0.9382681846618652,
                0.9996411800384521
            ],
            "min" : [
                -1.0700287818908691,
                -0.9921855330467224,
                -0.999640703201294
            ],
            "type" : "VEC3"
        },
        {
            "bufferView" : 5,
            "componentType" : 5126,
            "count" : 14864,
            "type" : "VEC3"
        },
        {
            "bufferView" : 6,
            "componentType" : 5126,
            "count" : 14864,
            "type" : "VEC2"
        },
        {
            "bufferView" : 7,
            "componentType" : 5126,
            "count" : 14864,
            "type" : "VEC2"
        },
        {
            "bufferView" : 8,
            "componentType" : 5123,
            "count" : 22440,
            "type" : "SCALAR"
        }
    ],
    "bufferViews" : [
        {
            "buffer" : 0,
            "byteLength" : 384,
            "byteOffset" : 0
        },
        {
            "buffer" : 0,
            "byteLength" : 384,
            "byteOffset" : 384
        },
        {
            "buffer" : 0,
            "byteLength" : 256,
            "byteOffset" : 768
        },
        {
            "buffer" : 0,
            "byteLength" : 180,
            "byteOffset" : 1024
        },
        {
            "buffer" : 0,
            "byteLength" : 178368,
            "byteOffset" : 1204
        },
        {
            "buffer" : 0,
            "byteLength" : 178368,
            "byteOffset" : 179572
        },
        {
            "buffer" : 0,
            "byteLength" : 118912,
            "byteOffset" : 357940
        },
        {
            "buffer" : 0,
            "byteLength" : 118912,
            "byteOffset" : 476852
        },
        {
            "buffer" : 0,
            "byteLength" : 44880,
            "byteOffset" : 595764
        }
    ],
    "buffers" : [
        {
            "byteLength" : 640644,
            "uri" : "data:application/octet-stream;base64,"
        }
    ]
}
