{
    "asset" : {
        "generator" : "Khronos glTF Blender I/O v1.4.40",
        "version" : "2.0"
    },
    "scene" : 0,
    "scenes" : [
        {
            "name" : "Scene",
            "nodes" : [
                0
            ]
        }
    ],
    "nodes" : [
        {
            "mesh" : 0,
            "name" : "Cube.002",
            "translation" : [
                1,
                1,
                0
            ]
        }
    ],
    "materials" : [
        {
            "doubleSided" : true,
            "name" : "Brick",
            "pbrMetallicRoughness" : {
                "baseColorFactor" : [
                    0.15592370927333832,
                    0.043293148279190063,
                    0.022850312292575836,
                    1
                ],
                "metallicFactor" : 0
            }
        },
        {
            "doubleSided" : true,
            "name" : "Brick.001",
            "pbrMetallicRoughness" : {
                "baseColorFactor" : [
                    0.11068903654813766,
                    0.025256315246224403,
                    0.01841583289206028,
                    1
                ],
                "metallicFactor" : 0
            }
        },
        {
            "doubleSided" : true,
            "name" : "Brick.002",
            "pbrMetallicRoughness" : {
                "baseColorFactor" : [
                    0.0732329934835434,
                    0.027041858062148094,
                    0.024973362684249878,
                    1
                ],
                "metallicFactor" : 0
            }
        },
        {
            "doubleSided" : true,
            "name" : "Brick.003",
            "pbrMetallicRoughness" : {
                "baseColorFactor" : [
                    0.15743444859981537,
                    0.10157596319913864,
                    0.08257931470870972,
                    1
                ],
                "metallicFactor" : 0
            }
        }
    ],
    "meshes" : [
        {
            "name" : "Cube.002",
            "primitives" : [
                {
                    "attributes" : {
                        "POSITION" : 0,
                        "NORMAL" : 1,
                        "TEXCOORD_0" : 2
                    },
                    "indices" : 3,
                    "material" : 0
                },
                {
                    "attributes" : {
                        "POSITION" : 4,
                        "NORMAL" : 5,
                        "TEXCOORD_0" : 6
                    },
                    "indices" : 7,
                    "material" : 1
                },
                {
                    "attributes" : {
                        "POSITION" : 8,
                        "NORMAL" : 9,
                        "TEXCOORD_0" : 10
                    },
                    "indices" : 11,
                    "material" : 2
                },
                {
                    "attributes" : {
                        "POSITION" : 12,
                        "NORMAL" : 13,
                        "TEXCOORD_0" : 14
                    },
                    "indices" : 15,
                    "material" : 3
                }
            ]
        }
    ],
    "accessors" : [
        {
            "bufferView" : 0,
            "componentType" : 5126,
            "count" : 134,
            "max" : [
                -0.38617944717407227,
                1.708477258682251,
                1.9145435094833374
            ],
            "min" : [
                -1,
                -1,
                -1.9145435094833374
            ],
            "type" : "VEC3"
        },
        {
            "bufferView" : 1,
            "componentType" : 5126,
            "count" : 134,
            "type" : "VEC3"
        },
        {
            "bufferView" : 2,
            "componentType" : 5126,
            "count" : 134,
            "type" : "VEC2"
        },
        {
            "bufferView" : 3,
            "componentType" : 5123,
            "count" : 204,
            "type" : "SCALAR"
        },
        {
            "bufferView" : 4,
            "componentType" : 5126,
            "count" : 2208,
            "max" : [
                -0.27160000801086426,
                1.4610050916671753,
                2.014378070831299
            ],
            "min" : [
                -1.2857987880706787,
                -0.9977996349334717,
                -1.9811500310897827
            ],
            "type" : "VEC3"
        },
        {
            "bufferView" : 5,
            "componentType" : 5126,
            "count" : 2208,
            "type" : "VEC3"
        },
        {
            "bufferView" : 6,
            "componentType" : 5126,
            "count" : 2208,
            "type" : "VEC2"
        },
        {
            "bufferView" : 7,
            "componentType" : 5123,
            "count" : 3036,
            "type" : "SCALAR"
        },
        {
            "bufferView" : 8,
            "componentType" : 5126,
            "count" : 16,
            "max" : [
                -0.38617944717407227,
                0.0386623740196228,
                1.6838585138320923
            ],
            "min" : [
                -0.9221487045288086,
                -1,
                -1.6838585138320923
            ],
            "type" : "VEC3"
        },
        {
            "bufferView" : 9,
            "componentType" : 5126,
            "count" : 16,
            "type" : "VEC3"
        },
        {
            "bufferView" : 10,
            "componentType" : 5126,
            "count" : 16,
            "type" : "VEC2"
        },
        {
            "bufferView" : 11,
            "componentType" : 5123,
            "count" : 24,
            "type" : "SCALAR"
        },
        {
            "bufferView" : 12,
            "componentType" : 5126,
            "count" : 96,
            "max" : [
                -0.2743538022041321,
                0.27603423595428467,
                1.4677311182022095
            ],
            "min" : [
                -0.4743538498878479,
                0.04558144509792328,
                -1.4677311182022095
            ],
            "type" : "VEC3"
        },
        {
            "bufferView" : 13,
            "componentType" : 5126,
            "count" : 96,
            "type" : "VEC3"
        },
        {
            "bufferView" : 14,
            "componentType" : 5126,
            "count" : 96,
            "type" : "VEC2"
        },
        {
            "bufferView" : 15,
            "componentType" : 5123,
            "count" : 132,
            "type" : "SCALAR"
        }
    ],
    "bufferViews" : [
        {
            "buffer" : 0,
            "byteLength" : 1608,
            "byteOffset" : 0
        },
        {
            "buffer" : 0,
            "byteLength" : 1608,
            "byteOffset" : 1608
        },
        {
            "buffer" : 0,
            "byteLength" : 1072,
            "byteOffset" : 3216
        },
        {
            "buffer" : 0,
            "byteLength" : 408,
            "byteOffset" : 4288
        },
        {
            "buffer" : 0,
            "byteLength" : 26496,
            "byteOffset" : 4696
        },
        {
            "buffer" : 0,
            "byteLength" : 26496,
            "byteOffset" : 31192
        },
        {
            "buffer" : 0,
            "byteLength" : 17664,
            "byteOffset" : 57688
        },
        {
            "buffer" : 0,
            "byteLength" : 6072,
            "byteOffset" : 75352
        },
        {
            "buffer" : 0,
            "byteLength" : 192,
            "byteOffset" : 81424
        },
        {
            "buffer" : 0,
            "byteLength" : 192,
            "byteOffset" : 81616
        },
        {
            "buffer" : 0,
            "byteLength" : 128,
            "byteOffset" : 81808
        },
        {
            "buffer" : 0,
            "byteLength" : 48,
            "byteOffset" : 81936
        },
        {
            "buffer" : 0,
            "byteLength" : 1152,
            "byteOffset" : 81984
        },
        {
            "buffer" : 0,
            "byteLength" : 1152,
            "byteOffset" : 83136
        },
        {
            "buffer" : 0,
            "byteLength" : 768,
            "byteOffset" : 84288
        },
        {
            "buffer" : 0,
            "byteLength" : 264,
            "byteOffset" : 85056
        }
    ],
    "buffers" : [
        {
            "byteLength" : 85320,
            "uri" : "data:application/octet-stream;base64,"
        }
    ]
}
