{
    "asset" : {
        "generator" : "Khronos glTF Blender I/O v1.4.40",
        "version" : "2.0"
    },
    "scene" : 0,
    "scenes" : [
        {
            "name" : "Scene",
            "nodes" : [
                0
            ]
        }
    ],
    "nodes" : [
        {
            "mesh" : 0,
            "name" : "brick.007",
            "rotation" : [
                0,
                -0.42261824011802673,
                0,
                0.9063078165054321
            ],
            "scale" : [
                0.10000002384185791,
                0.10000002384185791,
                0.10000002384185791
            ],
            "translation" : [
                0.883184552192688,
                0,
                1.5939785242080688
            ]
        }
    ],
    "materials" : [
        {
            "doubleSided" : true,
            "name" : "Brick.001",
            "pbrMetallicRoughness" : {
                "baseColorFactor" : [
                    0.11068903654813766,
                    0.025256315246224403,
                    0.01841583289206028,
                    1
                ],
                "metallicFactor" : 0
            }
        },
        {
            "doubleSided" : true,
            "name" : "Brick.008",
            "pbrMetallicRoughness" : {
                "baseColorFactor" : [
                    0.04445481300354004,
                    0.017282214015722275,
                    0.01603693887591362,
                    1
                ],
                "metallicFactor" : 0
            }
        }
    ],
    "meshes" : [
        {
            "name" : "Cube.021",
            "primitives" : [
                {
                    "attributes" : {
                        "POSITION" : 0,
                        "NORMAL" : 1,
                        "TEXCOORD_0" : 2
                    },
                    "indices" : 3,
                    "material" : 0
                },
                {
                    "attributes" : {
                        "POSITION" : 4,
                        "NORMAL" : 5,
                        "TEXCOORD_0" : 6
                    },
                    "indices" : 7,
                    "material" : 1
                }
            ]
        }
    ],
    "accessors" : [
        {
            "bufferView" : 0,
            "componentType" : 5126,
            "count" : 692,
            "max" : [
                1,
                1,
                7.945321559906006
            ],
            "min" : [
                -31.47751808166504,
                -1.1686428785324097,
                -21.817493438720703
            ],
            "type" : "VEC3"
        },
        {
            "bufferView" : 1,
            "componentType" : 5126,
            "count" : 692,
            "type" : "VEC3"
        },
        {
            "bufferView" : 2,
            "componentType" : 5126,
            "count" : 692,
            "type" : "VEC2"
        },
        {
            "bufferView" : 3,
            "componentType" : 5123,
            "count" : 954,
            "type" : "SCALAR"
        },
        {
            "bufferView" : 4,
            "componentType" : 5126,
            "count" : 6,
            "max" : [
                0.6247959136962891,
                0.31497037410736084,
                7.945321559906006
            ],
            "min" : [
                -31.47751808166504,
                0.31497037410736084,
                -21.132020950317383
            ],
            "type" : "VEC3"
        },
        {
            "bufferView" : 5,
            "componentType" : 5126,
            "count" : 6,
            "type" : "VEC3"
        },
        {
            "bufferView" : 6,
            "componentType" : 5126,
            "count" : 6,
            "type" : "VEC2"
        },
        {
            "bufferView" : 7,
            "componentType" : 5123,
            "count" : 12,
            "type" : "SCALAR"
        }
    ],
    "bufferViews" : [
        {
            "buffer" : 0,
            "byteLength" : 8304,
            "byteOffset" : 0
        },
        {
            "buffer" : 0,
            "byteLength" : 8304,
            "byteOffset" : 8304
        },
        {
            "buffer" : 0,
            "byteLength" : 5536,
            "byteOffset" : 16608
        },
        {
            "buffer" : 0,
            "byteLength" : 1908,
            "byteOffset" : 22144
        },
        {
            "buffer" : 0,
            "byteLength" : 72,
            "byteOffset" : 24052
        },
        {
            "buffer" : 0,
            "byteLength" : 72,
            "byteOffset" : 24124
        },
        {
            "buffer" : 0,
            "byteLength" : 48,
            "byteOffset" : 24196
        },
        {
            "buffer" : 0,
            "byteLength" : 24,
            "byteOffset" : 24244
        }
    ],
    "buffers" : [
        {
            "byteLength" : 24268,
            "uri" : "data:application/octet-stream;base64,"
        }
    ]
}
