{
    "asset" : {
        "generator" : "Khronos glTF Blender I/O v1.4.40",
        "version" : "2.0"
    },
    "scene" : 0,
    "scenes" : [
        {
            "name" : "Scene",
            "nodes" : [
                0
            ]
        }
    ],
    "nodes" : [
        {
            "mesh" : 0,
            "name" : "greenhouse triangle",
            "translation" : [
                0,
                3.2971713542938232,
                1.6041486263275146
            ]
        }
    ],
    "materials" : [
        {
            "doubleSided" : true,
            "name" : "greenhouse",
            "pbrMetallicRoughness" : {
                "baseColorFactor" : [
                    0.024232923984527588,
                    0.06372107565402985,
                    0.030568890273571014,
                    1
                ],
                "metallicFactor" : 0.5602836608886719,
                "roughnessFactor" : 0.6198581457138062
            }
        }
    ],
    "meshes" : [
        {
            "name" : "Cube.006",
            "primitives" : [
                {
                    "attributes" : {
                        "POSITION" : 0,
                        "NORMAL" : 1,
                        "TEXCOORD_0" : 2
                    },
                    "indices" : 3,
                    "material" : 0
                }
            ]
        }
    ],
    "accessors" : [
        {
            "bufferView" : 0,
            "componentType" : 5126,
            "count" : 94,
            "max" : [
                0.10000002384185791,
                0.8735929131507874,
                1.389448881149292
            ],
            "min" : [
                -0.10000002384185791,
                -0.7385602593421936,
                -4.5977463722229
            ],
            "type" : "VEC3"
        },
        {
            "bufferView" : 1,
            "componentType" : 5126,
            "count" : 94,
            "type" : "VEC3"
        },
        {
            "bufferView" : 2,
            "componentType" : 5126,
            "count" : 94,
            "type" : "VEC2"
        },
        {
            "bufferView" : 3,
            "componentType" : 5123,
            "count" : 144,
            "type" : "SCALAR"
        }
    ],
    "bufferViews" : [
        {
            "buffer" : 0,
            "byteLength" : 1128,
            "byteOffset" : 0
        },
        {
            "buffer" : 0,
            "byteLength" : 1128,
            "byteOffset" : 1128
        },
        {
            "buffer" : 0,
            "byteLength" : 752,
            "byteOffset" : 2256
        },
        {
            "buffer" : 0,
            "byteLength" : 288,
            "byteOffset" : 3008
        }
    ],
    "buffers" : [
        {
            "byteLength" : 3296,
            "uri" : "data:application/octet-stream;base64,"
        }
    ]
}
