{
    "asset" : {
        "generator" : "Khronos glTF Blender I/O v1.4.40",
        "version" : "2.0"
    },
    "scene" : 0,
    "scenes" : [
        {
            "name" : "Scene",
            "nodes" : [
                0
            ]
        }
    ],
    "nodes" : [
        {
            "mesh" : 0,
            "name" : "greenhouse triangle glass",
            "scale" : [
                1,
                1,
                1.0228393077850342
            ],
            "translation" : [
                0,
                3.1794347763061523,
                0
            ]
        }
    ],
    "materials" : [
        {
            "doubleSided" : true,
            "name" : "greenhouse",
            "pbrMetallicRoughness" : {
                "baseColorFactor" : [
                    0.024232923984527588,
                    0.06372107565402985,
                    0.030568890273571014,
                    1
                ],
                "metallicFactor" : 0.5602836608886719,
                "roughnessFactor" : 0.6198581457138062
            }
        }
    ],
    "meshes" : [
        {
            "name" : "Cube.010",
            "primitives" : [
                {
                    "attributes" : {
                        "POSITION" : 0,
                        "NORMAL" : 1,
                        "TEXCOORD_0" : 2
                    },
                    "indices" : 3,
                    "material" : 0
                }
            ]
        }
    ],
    "accessors" : [
        {
            "bufferView" : 0,
            "componentType" : 5126,
            "count" : 551,
            "max" : [
                -0.03699856251478195,
                0.7818723917007446,
                2.528021812438965
            ],
            "min" : [
                -0.10177715122699738,
                -0.4610387086868286,
                -2.528021812438965
            ],
            "type" : "VEC3"
        },
        {
            "bufferView" : 1,
            "componentType" : 5126,
            "count" : 551,
            "type" : "VEC3"
        },
        {
            "bufferView" : 2,
            "componentType" : 5126,
            "count" : 551,
            "type" : "VEC2"
        },
        {
            "bufferView" : 3,
            "componentType" : 5123,
            "count" : 852,
            "type" : "SCALAR"
        }
    ],
    "bufferViews" : [
        {
            "buffer" : 0,
            "byteLength" : 6612,
            "byteOffset" : 0
        },
        {
            "buffer" : 0,
            "byteLength" : 6612,
            "byteOffset" : 6612
        },
        {
            "buffer" : 0,
            "byteLength" : 4408,
            "byteOffset" : 13224
        },
        {
            "buffer" : 0,
            "byteLength" : 1704,
            "byteOffset" : 17632
        }
    ],
    "buffers" : [
        {
            "byteLength" : 19336,
            "uri" : "data:application/octet-stream;base64,"
        }
    ]
}
