{
    "asset" : {
        "generator" : "Khronos glTF Blender I/O v1.4.40",
        "version" : "2.0"
    },
    "scene" : 0,
    "scenes" : [
        {
            "name" : "Scene",
            "nodes" : [
                0
            ]
        }
    ],
    "nodes" : [
        {
            "mesh" : 0,
            "name" : "Cube.004",
            "translation" : [
                0,
                1,
                0
            ]
        }
    ],
    "materials" : [
        {
            "doubleSided" : true,
            "name" : "greenhouse",
            "pbrMetallicRoughness" : {
                "baseColorFactor" : [
                    0.024232923984527588,
                    0.06372107565402985,
                    0.030568890273571014,
                    1
                ],
                "metallicFactor" : 0.5602836608886719,
                "roughnessFactor" : 0.6198581457138062
            }
        }
    ],
    "meshes" : [
        {
            "name" : "Cube.004",
            "primitives" : [
                {
                    "attributes" : {
                        "POSITION" : 0,
                        "NORMAL" : 1,
                        "TEXCOORD_0" : 2
                    },
                    "indices" : 3,
                    "material" : 0
                }
            ]
        }
    ],
    "accessors" : [
        {
            "bufferView" : 0,
            "componentType" : 5126,
            "count" : 36,
            "max" : [
                0.10000002384185791,
                1.538961410522461,
                0.09999990463256836
            ],
            "min" : [
                -0.10000002384185791,
                -1,
                -0.10000008344650269
            ],
            "type" : "VEC3"
        },
        {
            "bufferView" : 1,
            "componentType" : 5126,
            "count" : 36,
            "type" : "VEC3"
        },
        {
            "bufferView" : 2,
            "componentType" : 5126,
            "count" : 36,
            "type" : "VEC2"
        },
        {
            "bufferView" : 3,
            "componentType" : 5123,
            "count" : 60,
            "type" : "SCALAR"
        }
    ],
    "bufferViews" : [
        {
            "buffer" : 0,
            "byteLength" : 432,
            "byteOffset" : 0
        },
        {
            "buffer" : 0,
            "byteLength" : 432,
            "byteOffset" : 432
        },
        {
            "buffer" : 0,
            "byteLength" : 288,
            "byteOffset" : 864
        },
        {
            "buffer" : 0,
            "byteLength" : 120,
            "byteOffset" : 1152
        }
    ],
    "buffers" : [
        {
            "byteLength" : 1272,
            "uri" : "data:application/octet-stream;base64,"
        }
    ]
}
