{
    "asset" : {
        "generator" : "Khronos glTF Blender I/O v1.4.40",
        "version" : "2.0"
    },
    "scene" : 0,
    "scenes" : [
        {
            "name" : "Scene",
            "nodes" : [
                0
            ]
        }
    ],
    "nodes" : [
        {
            "mesh" : 0,
            "name" : "Cube",
            "scale" : [
                1,
                1,
                1.0228393077850342
            ],
            "translation" : [
                0,
                1,
                0
            ]
        }
    ],
    "materials" : [
        {
            "doubleSided" : true,
            "name" : "greenhouse",
            "pbrMetallicRoughness" : {
                "baseColorFactor" : [
                    0.024232923984527588,
                    0.06372107565402985,
                    0.030568890273571014,
                    1
                ],
                "metallicFactor" : 0.5602836608886719,
                "roughnessFactor" : 0.6198581457138062
            }
        }
    ],
    "meshes" : [
        {
            "name" : "Cube",
            "primitives" : [
                {
                    "attributes" : {
                        "POSITION" : 0,
                        "NORMAL" : 1,
                        "TEXCOORD_0" : 2
                    },
                    "indices" : 3,
                    "material" : 0
                }
            ]
        }
    ],
    "accessors" : [
        {
            "bufferView" : 0,
            "componentType" : 5126,
            "count" : 485,
            "max" : [
                1.4901161193847656e-08,
                1.5389615297317505,
                0.9776706695556641
            ],
            "min" : [
                -0.10177715122699738,
                -1,
                -0.9776706695556641
            ],
            "type" : "VEC3"
        },
        {
            "bufferView" : 1,
            "componentType" : 5126,
            "count" : 485,
            "type" : "VEC3"
        },
        {
            "bufferView" : 2,
            "componentType" : 5126,
            "count" : 485,
            "type" : "VEC2"
        },
        {
            "bufferView" : 3,
            "componentType" : 5123,
            "count" : 738,
            "type" : "SCALAR"
        }
    ],
    "bufferViews" : [
        {
            "buffer" : 0,
            "byteLength" : 5820,
            "byteOffset" : 0
        },
        {
            "buffer" : 0,
            "byteLength" : 5820,
            "byteOffset" : 5820
        },
        {
            "buffer" : 0,
            "byteLength" : 3880,
            "byteOffset" : 11640
        },
        {
            "buffer" : 0,
            "byteLength" : 1476,
            "byteOffset" : 15520
        }
    ],
    "buffers" : [
        {
            "byteLength" : 16996,
            "uri" : "data:application/octet-stream;base64,"
        }
    ]
}
