{
    "asset" : {
        "generator" : "Khronos glTF Blender I/O v1.4.40",
        "version" : "2.0"
    },
    "scene" : 0,
    "scenes" : [
        {
            "name" : "Scene",
            "nodes" : [
                0
            ]
        }
    ],
    "nodes" : [
        {
            "mesh" : 0,
            "name" : "Cube",
            "translation" : [
                0.5,
                0.24999994039535522,
                0
            ]
        }
    ],
    "materials" : [
        {
            "doubleSided" : true,
            "name" : "Brick.004",
            "pbrMetallicRoughness" : {
                "baseColorFactor" : [
                    0.04954720661044121,
                    0.03718806430697441,
                    0.020825978368520737,
                    1
                ],
                "metallicFactor" : 0
            }
        },
        {
            "doubleSided" : true,
            "name" : "wood",
            "pbrMetallicRoughness" : {
                "baseColorFactor" : [
                    0.09530751407146454,
                    0.02415761724114418,
                    0.016807379201054573,
                    1
                ],
                "metallicFactor" : 0
            }
        }
    ],
    "meshes" : [
        {
            "name" : "Cube.019",
            "primitives" : [
                {
                    "attributes" : {
                        "POSITION" : 0,
                        "NORMAL" : 1,
                        "TEXCOORD_0" : 2
                    },
                    "indices" : 3,
                    "material" : 0
                },
                {
                    "attributes" : {
                        "POSITION" : 4,
                        "NORMAL" : 5,
                        "TEXCOORD_0" : 6
                    },
                    "indices" : 7,
                    "material" : 1
                }
            ]
        }
    ],
    "accessors" : [
        {
            "bufferView" : 0,
            "componentType" : 5126,
            "count" : 192,
            "max" : [
                0.4750000536441803,
                0.9891637563705444,
                1.0236746072769165
            ],
            "min" : [
                -0.5,
                -0.25,
                -1.0236749649047852
            ],
            "type" : "VEC3"
        },
        {
            "bufferView" : 1,
            "componentType" : 5126,
            "count" : 192,
            "type" : "VEC3"
        },
        {
            "bufferView" : 2,
            "componentType" : 5126,
            "count" : 192,
            "type" : "VEC2"
        },
        {
            "bufferView" : 3,
            "componentType" : 5123,
            "count" : 324,
            "type" : "SCALAR"
        },
        {
            "bufferView" : 4,
            "componentType" : 5126,
            "count" : 160,
            "max" : [
                0.5,
                1.0657830238342285,
                1.043852686882019
            ],
            "min" : [
                -0.5,
                0.23095101118087769,
                -1.043852686882019
            ],
            "type" : "VEC3"
        },
        {
            "bufferView" : 5,
            "componentType" : 5126,
            "count" : 160,
            "type" : "VEC3"
        },
        {
            "bufferView" : 6,
            "componentType" : 5126,
            "count" : 160,
            "type" : "VEC2"
        },
        {
            "bufferView" : 7,
            "componentType" : 5123,
            "count" : 264,
            "type" : "SCALAR"
        }
    ],
    "bufferViews" : [
        {
            "buffer" : 0,
            "byteLength" : 2304,
            "byteOffset" : 0
        },
        {
            "buffer" : 0,
            "byteLength" : 2304,
            "byteOffset" : 2304
        },
        {
            "buffer" : 0,
            "byteLength" : 1536,
            "byteOffset" : 4608
        },
        {
            "buffer" : 0,
            "byteLength" : 648,
            "byteOffset" : 6144
        },
        {
            "buffer" : 0,
            "byteLength" : 1920,
            "byteOffset" : 6792
        },
        {
            "buffer" : 0,
            "byteLength" : 1920,
            "byteOffset" : 8712
        },
        {
            "buffer" : 0,
            "byteLength" : 1280,
            "byteOffset" : 10632
        },
        {
            "buffer" : 0,
            "byteLength" : 528,
            "byteOffset" : 11912
        }
    ],
    "buffers" : [
        {
            "byteLength" : 12440,
            "uri" : "data:application/octet-stream;base64,"
        }
    ]
}
