{
    "asset" : {
        "generator" : "Khronos glTF Blender I/O v1.4.40",
        "version" : "2.0"
    },
    "scene" : 0,
    "scenes" : [
        {
            "name" : "Scene",
            "nodes" : [
                0
            ]
        }
    ],
    "nodes" : [
        {
            "mesh" : 0,
            "name" : "Cylinder",
            "scale" : [
                0.48778003454208374,
                1,
                0.48778003454208374
            ],
            "translation" : [
                0,
                1,
                0
            ]
        }
    ],
    "materials" : [
        {
            "doubleSided" : true,
            "name" : "Brick.005",
            "pbrMetallicRoughness" : {
                "baseColorFactor" : [
                    0.10383162647485733,
                    0.09960217773914337,
                    0.12823975086212158,
                    1
                ],
                "metallicFactor" : 0.5460993051528931,
                "roughnessFactor" : 0.5248227119445801
            }
        },
        {
            "doubleSided" : true,
            "name" : "Brick.007",
            "pbrMetallicRoughness" : {
                "baseColorFactor" : [
                    0.06643695384263992,
                    0.06052016094326973,
                    0.09083796292543411,
                    1
                ],
                "metallicFactor" : 0.631205677986145,
                "roughnessFactor" : 0.4964538812637329
            }
        }
    ],
    "meshes" : [
        {
            "name" : "Cylinder",
            "primitives" : [
                {
                    "attributes" : {
                        "POSITION" : 0,
                        "NORMAL" : 1,
                        "TEXCOORD_0" : 2
                    },
                    "indices" : 3,
                    "material" : 0
                },
                {
                    "attributes" : {
                        "POSITION" : 4,
                        "NORMAL" : 5,
                        "TEXCOORD_0" : 6
                    },
                    "indices" : 7,
                    "material" : 1
                }
            ]
        }
    ],
    "accessors" : [
        {
            "bufferView" : 0,
            "componentType" : 5126,
            "count" : 1060,
            "max" : [
                0.6249900460243225,
                -0.23949582874774933,
                0.6249900460243225
            ],
            "min" : [
                -0.6249900460243225,
                -1,
                -0.6249900460243225
            ],
            "type" : "VEC3"
        },
        {
            "bufferView" : 1,
            "componentType" : 5126,
            "count" : 1060,
            "type" : "VEC3"
        },
        {
            "bufferView" : 2,
            "componentType" : 5126,
            "count" : 1060,
            "type" : "VEC2"
        },
        {
            "bufferView" : 3,
            "componentType" : 5123,
            "count" : 1680,
            "type" : "SCALAR"
        },
        {
            "bufferView" : 4,
            "componentType" : 5126,
            "count" : 128,
            "max" : [
                0.6021611094474792,
                -0.3068749010562897,
                0.6021611094474792
            ],
            "min" : [
                -0.6021611094474792,
                -0.4103837311267853,
                -0.6021611094474792
            ],
            "type" : "VEC3"
        },
        {
            "bufferView" : 5,
            "componentType" : 5126,
            "count" : 128,
            "type" : "VEC3"
        },
        {
            "bufferView" : 6,
            "componentType" : 5126,
            "count" : 128,
            "type" : "VEC2"
        },
        {
            "bufferView" : 7,
            "componentType" : 5123,
            "count" : 192,
            "type" : "SCALAR"
        }
    ],
    "bufferViews" : [
        {
            "buffer" : 0,
            "byteLength" : 12720,
            "byteOffset" : 0
        },
        {
            "buffer" : 0,
            "byteLength" : 12720,
            "byteOffset" : 12720
        },
        {
            "buffer" : 0,
            "byteLength" : 8480,
            "byteOffset" : 25440
        },
        {
            "buffer" : 0,
            "byteLength" : 3360,
            "byteOffset" : 33920
        },
        {
            "buffer" : 0,
            "byteLength" : 1536,
            "byteOffset" : 37280
        },
        {
            "buffer" : 0,
            "byteLength" : 1536,
            "byteOffset" : 38816
        },
        {
            "buffer" : 0,
            "byteLength" : 1024,
            "byteOffset" : 40352
        },
        {
            "buffer" : 0,
            "byteLength" : 384,
            "byteOffset" : 41376
        }
    ],
    "buffers" : [
        {
            "byteLength" : 41760,
            "uri" : "data:application/octet-stream;base64,"
        }
    ]
}
